<svg width="32" height="32" viewBox="0 0 32 32" fill="none" xmlns="http://www.w3.org/2000/svg">
<path d="M3 14.5C2.17157 14.5 1.5 15.1716 1.5 16C1.5 16.8284 2.17157 17.5 3 17.5L3 14.5ZM31.0607 17.0607C31.6464 16.4749 31.6464 15.5251 31.0607 14.9393L21.5147 5.3934C20.9289 4.80761 19.9792 4.80761 19.3934 5.3934C18.8076 5.97919 18.8076 6.92893 19.3934 7.51472L27.8787 16L19.3934 24.4853C18.8076 25.0711 18.8076 26.0208 19.3934 26.6066C19.9792 27.1924 20.9289 27.1924 21.5147 26.6066L31.0607 17.0607ZM3 17.5L30 17.5L30 14.5L3 14.5L3 17.5Z" fill="white"/>
</svg>
