<svg width="32" height="32" viewBox="0 0 32 32" fill="none" xmlns="http://www.w3.org/2000/svg">
<path d="M12.8889 28.4445C13.6253 28.4445 14.2222 27.8475 14.2222 27.1112C14.2222 26.3748 13.6253 25.7778 12.8889 25.7778C12.1525 25.7778 11.5556 26.3748 11.5556 27.1112C11.5556 27.8475 12.1525 28.4445 12.8889 28.4445Z" fill="black" stroke="black" stroke-width="2" stroke-linecap="round" stroke-linejoin="round"/>
<path d="M25.3333 28.4445C26.0697 28.4445 26.6667 27.8475 26.6667 27.1112C26.6667 26.3748 26.0697 25.7778 25.3333 25.7778C24.597 25.7778 24 26.3748 24 27.1112C24 27.8475 24.597 28.4445 25.3333 28.4445Z" fill="black" stroke="black" stroke-width="2" stroke-linecap="round" stroke-linejoin="round"/>
<path d="M2.66667 2.6665H7.51516L10.7636 18.5357C10.8745 19.0814 11.1781 19.5715 11.6213 19.9204C12.0645 20.2692 12.619 20.4545 13.1879 20.4438H24.9697C25.5386 20.4545 26.0931 20.2692 26.5363 19.9204C26.9795 19.5715 27.2831 19.0814 27.3939 18.5357L29.3333 8.59229H8.72728" stroke="black" stroke-width="2" stroke-linecap="round" stroke-linejoin="round"/>
</svg>
