<svg width="141" height="35" viewBox="0 0 141 35" fill="none" xmlns="http://www.w3.org/2000/svg">
<path d="M11.7 35L0.5 -2.38419e-06H12.65L21.7 29.55H15.6L25.2 -2.38419e-06H36.05L45 29.55H39.15L48.6 -2.38419e-06H59.8L48.6 35H35.95L28.65 10.8H32.05L24.35 35H11.7ZM72.1527 35L57.3527 -2.38419e-06H70.0527L82.1027 29.55H74.5527L86.9527 -2.38419e-06H98.5527L83.7527 35H72.1527Z" fill="black"/>
<path d="M98.4594 35V-2.38419e-06H108.159L122.159 22.85H117.059L130.659 -2.38419e-06H140.359L140.459 35H129.709L129.609 16.2H131.309L122.009 31.85H116.809L107.109 16.2H109.209V35H98.4594Z" fill="#21BF48"/>
</svg>
