<svg width="32" height="32" viewBox="0 0 32 32" fill="none" xmlns="http://www.w3.org/2000/svg">
<path d="M12.8889 28.4445C13.6253 28.4445 14.2222 27.8475 14.2222 27.1112C14.2222 26.3748 13.6253 25.7778 12.8889 25.7778C12.1525 25.7778 11.5555 26.3748 11.5555 27.1112C11.5555 27.8475 12.1525 28.4445 12.8889 28.4445Z" fill="white" stroke="white" stroke-width="2" stroke-linecap="round" stroke-linejoin="round"/>
<path d="M25.3333 28.4445C26.0697 28.4445 26.6667 27.8475 26.6667 27.1112C26.6667 26.3748 26.0697 25.7778 25.3333 25.7778C24.597 25.7778 24 26.3748 24 27.1112C24 27.8475 24.597 28.4445 25.3333 28.4445Z" fill="white" stroke="white" stroke-width="2" stroke-linecap="round" stroke-linejoin="round"/>
<path d="M2.66663 2.66675H7.51511L10.7636 18.536C10.8744 19.0816 11.178 19.5718 11.6212 19.9206C12.0644 20.2694 12.619 20.4548 13.1878 20.4441H24.9697C25.5385 20.4548 26.0931 20.2694 26.5363 19.9206C26.9795 19.5718 27.2831 19.0816 27.3939 18.536L29.3333 8.59253H8.72723" stroke="white" stroke-width="2" stroke-linecap="round" stroke-linejoin="round"/>
</svg>
